<svg id="experience" xmlns="http://www.w3.org/2000/svg" width="92" height="92" viewBox="0 0 92 92">
  <circle id="Ellipse_1" data-name="Ellipse 1" cx="45.999" cy="45.999" r="45.999" transform="translate(0 0)" fill="#f2ebda"/>
  <path id="Tracé_14" data-name="Tracé 14" d="M164.51,167.152l-15.8-15.8h-7.092v13.327a10.038,10.038,0,0,0-7.775-3.736,12.077,12.077,0,0,0-2.256.207l-9.8-9.8h-8.658l-5.574,9.116-9.116-9.116H89.7l11.459,17.694-12.646,19.31,27.742,27.742q1.169.059,2.353.059a46,46,0,0,0,46-46C164.61,169.144,164.574,168.144,164.51,167.152Z" transform="translate(-72.61 -124.152)" fill="#ee8100"/>
  <g id="Groupe_13" data-name="Groupe 13" transform="translate(15.905 27.195)">
    <path id="Tracé_15" data-name="Tracé 15" d="M88.515,188.351l12.646-19.31L89.7,151.347h8.733l7.421,11.888,7.269-11.888h8.658l-11.51,17.972,12.646,19.032h-9.011l-8.2-12.8-8.229,12.8Z" transform="translate(-88.515 -151.347)" fill="#f2ebda" stroke="#ee8100" stroke-width="1"/>
    <path id="Tracé_16" data-name="Tracé 16" d="M303.991,188.351H297.4v-3.938a10.641,10.641,0,0,1-3.874,3.42,9.944,9.944,0,0,1-4.505,1.123,10.21,10.21,0,0,1-7.913-3.723q-3.294-3.723-3.294-10.387,0-6.815,3.205-10.362a10.452,10.452,0,0,1,8.1-3.546,10.039,10.039,0,0,1,7.775,3.736V151.347h7.093v37ZM285.06,174.367q0,4.291,1.186,6.209a5.359,5.359,0,0,0,4.8,2.777,5.221,5.221,0,0,0,4.165-2.082q1.716-2.082,1.717-6.222,0-4.619-1.666-6.651a5.273,5.273,0,0,0-4.266-2.032,5.329,5.329,0,0,0-4.228,2.007Q285.06,170.379,285.06,174.367Z" transform="translate(-243.801 -151.347)" fill="#f2ebda" stroke="#ee8100" stroke-width="1"/>
  </g>
</svg>
