<svg height="512" viewBox="0 0 512 512" width="512" xmlns="http://www.w3.org/2000/svg"><g id="solid"><path d="m263.206 271.31a25.923 25.923 0 0 0 33.588 0l168.906-142.923a18 18 0 0 0 -3.7-.387h-364a17.993 17.993 0 0 0 -3.7.387z"/><path d="m307.13 283.524a41.878 41.878 0 0 1 -54.26 0l-4.85-4.1-153.326 104.258a18.005 18.005 0 0 0 3.306.318h364a18.014 18.014 0 0 0 3.306-.318l-153.326-104.262z"/><path d="m478.394 138.609-153.736 130.084 153.793 104.58a17.869 17.869 0 0 0 1.549-7.273v-220a17.856 17.856 0 0 0 -1.606-7.391z"/><path d="m56 296a8 8 0 0 0 -8-8h-16a8 8 0 0 0 0 16h16a8 8 0 0 0 8-8z"/><path d="m82.832 139.646a8.046 8.046 0 0 1 -1.148-1.2 17.85 17.85 0 0 0 -1.684 7.554v110h-56a8 8 0 0 0 0 16h56v16h-4a8 8 0 0 0 0 16h4v16h-32a8 8 0 0 0 0 16h32v30a17.869 17.869 0 0 0 1.549 7.273l153.793-104.58z"/></g></svg>