<svg xmlns="http://www.w3.org/2000/svg" width="85.195" height="85.194" viewBox="0 0 85.195 85.194">
  <path id="git-alt-brands" d="M83.588,70.806,46.4,33.61a5.49,5.49,0,0,0-7.761,0l-7.732,7.727,9.8,9.8a6.519,6.519,0,0,1,8.251,8.307L58.4,68.884c6.509-2.244,11.634,5.9,6.745,10.781-5.038,5.038-13.352-.546-10.649-7.1l-8.814-8.8V86.933c4.811,2.385,4.233,7.959,1.727,10.459a6.526,6.526,0,1,1-7.093-10.649V63.352a6.523,6.523,0,0,1-3.545-8.558l-9.659-9.67L1.606,70.633a5.488,5.488,0,0,0,0,7.761l37.2,37.2a5.488,5.488,0,0,0,7.759,0L83.588,78.567a5.488,5.488,0,0,0,0-7.761Z" transform="translate(0.001 -32.003)" fill="#f2ebda"/>
</svg>
