<svg xmlns="http://www.w3.org/2000/svg" width="119.168" height="122.689" viewBox="0 0 119.168 122.689">
  <path id="laravel-brands" d="M126.441,27.754a1.373,1.373,0,0,0-.067-.163,2.04,2.04,0,0,0-.127-.3,1.436,1.436,0,0,0-.129-.17,2.245,2.245,0,0,0-.173-.225c-.055-.053-.125-.1-.185-.144a2.116,2.116,0,0,0-.216-.163L102.478,13.31a1.917,1.917,0,0,0-1.917,0L77.49,26.6h0a1.933,1.933,0,0,0-.211.165,1.84,1.84,0,0,0-.187.144,1.97,1.97,0,0,0-.173.223c-.041.058-.093.108-.129.17a2.323,2.323,0,0,0-.125.3c-.019.055-.05.105-.067.163a1.936,1.936,0,0,0-.067.5V53.478L57.309,64.547V15.2a1.869,1.869,0,0,0-.067-.5c-.014-.058-.048-.108-.067-.163a2,2,0,0,0-.125-.3c-.034-.062-.089-.113-.129-.173a2.245,2.245,0,0,0-.173-.225,2.265,2.265,0,0,0-.187-.144,2.349,2.349,0,0,0-.211-.163h0L33.277.255a1.917,1.917,0,0,0-1.917,0L8.291,13.535h0a1.562,1.562,0,0,0-.211.165,1.871,1.871,0,0,0-.189.144,1.953,1.953,0,0,0-.17.223c-.043.06-.1.11-.132.173a1.888,1.888,0,0,0-.122.3A1.548,1.548,0,0,0,7.4,14.7a1.96,1.96,0,0,0-.067.5v79a1.917,1.917,0,0,0,.959,1.665l46.128,26.56a2.115,2.115,0,0,0,.319.129c.05.019.1.048.151.062a1.9,1.9,0,0,0,.982,0c.048-.012.089-.038.132-.053a2.06,2.06,0,0,0,.335-.139l46.142-26.56a1.917,1.917,0,0,0,.958-1.665V68.982l22.1-12.727a1.917,1.917,0,0,0,.959-1.677V28.255A2.068,2.068,0,0,0,126.441,27.754ZM32.316,4.139h0L51.531,15.2,32.313,26.264,13.1,15.2ZM53.463,18.517V66.758l-11.15,6.42L34.24,77.827V29.592l11.15-6.42Zm0,98.913L11.174,93.093V18.527l8.073,4.644,11.147,6.422V81.155a1.663,1.663,0,0,0,.029.216,1.917,1.917,0,0,0,.038.283h0a1.419,1.419,0,0,0,.091.216,1.529,1.529,0,0,0,.1.24h0a2.046,2.046,0,0,0,.144.187,1.825,1.825,0,0,0,.158.2h0c.055.053.125.091.185.139a2.14,2.14,0,0,0,.206.158h0L53.436,95.3ZM55.38,91.989,36.2,81.129l20.15-11.6L78.453,56.8l19.2,11.054L83.565,75.9Zm44.216,1.1L57.3,117.442V95.322L88.628,77.446,99.6,71.179Zm0-28.547-8.073-4.632-11.15-6.42V31.579l8.073,4.649L99.6,42.652Zm1.917-25.228L82.295,28.246l19.218-11.061,19.213,11.059Zm1.917,25.228V42.652L114.6,36.228l8.071-4.649v21.9h0Z" transform="translate(-7.33 0.002)" fill="#ffa801"/>
</svg>
