<svg xmlns="http://www.w3.org/2000/svg" width="76.849" height="79.119" viewBox="0 0 76.849 79.119">
  <path id="laravel-brands" d="M84.142,17.9a.886.886,0,0,0-.043-.105,1.317,1.317,0,0,0-.082-.193.927.927,0,0,0-.083-.11,1.447,1.447,0,0,0-.111-.145c-.036-.034-.08-.062-.119-.093a1.366,1.366,0,0,0-.139-.105L68.689,8.583a1.236,1.236,0,0,0-1.236,0L52.574,17.151h0a1.247,1.247,0,0,0-.136.107,1.187,1.187,0,0,0-.121.093,1.271,1.271,0,0,0-.111.144c-.026.037-.06.07-.083.11a1.5,1.5,0,0,0-.08.193c-.012.036-.032.068-.043.105a1.248,1.248,0,0,0-.043.321V34.486l-12.4,7.138V9.8a1.205,1.205,0,0,0-.043-.323c-.009-.037-.031-.07-.043-.105a1.29,1.29,0,0,0-.08-.192c-.022-.04-.057-.073-.083-.111a1.447,1.447,0,0,0-.111-.145,1.461,1.461,0,0,0-.121-.093,1.515,1.515,0,0,0-.136-.105h0L24.062.164a1.236,1.236,0,0,0-1.236,0L7.95,8.728h0a1.008,1.008,0,0,0-.136.107,1.207,1.207,0,0,0-.122.093,1.259,1.259,0,0,0-.11.144c-.028.039-.062.071-.085.111a1.218,1.218,0,0,0-.079.192,1,1,0,0,0-.045.1A1.264,1.264,0,0,0,7.33,9.8V60.75a1.236,1.236,0,0,0,.618,1.074L37.695,78.952a1.364,1.364,0,0,0,.206.083c.032.012.063.031.1.04a1.224,1.224,0,0,0,.634,0c.031-.008.057-.025.085-.034a1.329,1.329,0,0,0,.216-.09L68.689,61.824a1.236,1.236,0,0,0,.618-1.074V44.484l14.254-8.207a1.236,1.236,0,0,0,.618-1.082V18.221A1.334,1.334,0,0,0,84.142,17.9ZM23.443,2.669h0L35.834,9.8,23.441,16.936,11.051,9.8ZM37.08,11.94V43.05l-7.19,4.14-5.206,3V19.083l7.19-4.14Zm0,63.786L9.809,60.033V11.947l5.206,2.995L22.2,19.083V52.334a1.072,1.072,0,0,0,.019.139,1.236,1.236,0,0,0,.025.182h0a.915.915,0,0,0,.059.139.986.986,0,0,0,.065.155h0a1.32,1.32,0,0,0,.093.121,1.177,1.177,0,0,0,.1.13h0c.036.034.08.059.119.09a1.38,1.38,0,0,0,.133.1h0l14.246,8.063Zm1.236-16.406-12.372-7,12.994-7.481L53.2,36.63l12.382,7.128-9.086,5.186Zm28.514.706L39.557,75.735V61.47l20.2-11.528L66.83,45.9Zm0-18.409-5.206-2.987-7.19-4.14V20.364l5.206,3L66.83,27.5Zm1.236-16.269L55.673,18.214l12.393-7.133,12.39,7.132ZM69.3,41.618V27.5l7.206-4.143,5.2-3V34.486h0Z" transform="translate(-7.33 0.002)" fill="#f2ebda"/>
</svg>
