<svg xmlns="http://www.w3.org/2000/svg" width="602.742" height="533.203" viewBox="0 0 602.742 533.203">
  <path id="Tracé_9" data-name="Tracé 9" d="M89.805,163.881,169,278.8c6.343,9.226,14.968,6.968,19.007-4.6L279.88,16.79c1.152-3.2,3.823-9.193,6.336-9.193h69.694c3.665.021,6.336,8.533,6.336,13.79V255.813c0,5.493,2.506,9.279,6.336,9.193H406.6c3.695-.064,6.261-8.49,6.336-13.79V108.722c.1-8.368,8.273-14.707,12.672-9.193L609.342,333.954a11.288,11.288,0,0,1,0,13.79L457.282,540.8V444.272c-.03-2.854-1.481-7.305,0-9.193l72.862-91.931a11.161,11.161,0,0,0,0-13.79l-63.358-73.545c-4.458-5.342-12.672-3.728-12.672,4.6v68.949c0,5.407-2.566,9.172-6.336,9.193H314.726c-3.785.021-6.321-3.765-6.336-9.193V145.495c-.03-10.513-9.6-9.548-12.672,0L203.85,425.886c-1.99,6.179-6.123,4.742-9.5,0L10.607,168.478c-4.263-5.986.367-13.79,6.336-13.79h60.19C81.681,154.838,86.694,159.139,89.805,163.881Z" transform="translate(-8.95 -7.597)" fill="#1d1d1d" opacity="0.04"/>
</svg>
