<svg xmlns="http://www.w3.org/2000/svg" width="180.209" height="201.138" viewBox="0 0 180.209 201.138">
  <g id="Groupe_27" data-name="Groupe 27" transform="translate(-1136 -1635)">
    <g id="Groupe_26" data-name="Groupe 26" transform="translate(-17)">
      <g id="Groupe_25" data-name="Groupe 25" transform="translate(1156 1635)">
        <rect id="Rectangle_36" data-name="Rectangle 36" width="103" height="187" rx="13" transform="translate(16)" fill="#155cbc"/>
        <rect id="Rectangle_37" data-name="Rectangle 37" width="94" height="151" transform="translate(21 15)" fill="#f3efe4"/>
        <g id="Ellipse_7" data-name="Ellipse 7" transform="translate(61 168)" fill="#f3efe4" stroke="rgba(29,29,29,0.9)" stroke-width="5">
          <circle cx="8" cy="8" r="8" stroke="none"/>
          <circle cx="8" cy="8" r="5.5" fill="none"/>
        </g>
      </g>
      <path id="Tracé_57" data-name="Tracé 57" d="M3,0A3,3,0,1,1,0,3,3,3,0,0,1,3,0Z" transform="translate(1220.5 1636)" fill="#1d1d1d"/>
      <g id="Tracé_56" data-name="Tracé 56" transform="translate(1212 1644)" fill="#1d1d1d">
        <path d="M2,0H21a2,2,0,0,1,0,4H2A2,2,0,0,1,2,0Z" stroke="none"/>
        <path d="M 2 1 C 1.448600769042969 1 1 1.448600053787231 1 2 C 1 2.551399946212769 1.448600769042969 3 2 3 L 21 3 C 21.55139923095703 3 22 2.551399946212769 22 2 C 22 1.448600053787231 21.55139923095703 1 21 1 L 2 1 M 2 0 L 21 0 C 22.10457038879395 0 23 0.8954300880432129 23 2 C 23 3.104569911956787 22.10457038879395 4 21 4 L 2 4 C 0.8954296112060547 4 0 3.104569911956787 0 2 C 0 0.8954300880432129 0.8954296112060547 0 2 0 Z" stroke="none" fill="rgba(29,29,29,0.89)"/>
      </g>
    </g>
    <g id="Groupe_28" data-name="Groupe 28">
      <g id="Groupe_24" data-name="Groupe 24" transform="matrix(0.921, -0.391, 0.391, 0.921, 1118.494, 1692.586)">
        <path id="Tracé_51" data-name="Tracé 51" d="M113.072,45.893A9.926,9.926,0,0,0,102.845,55.6l-.024-6.5a10.1,10.1,0,0,0-10.3-9.783,9.927,9.927,0,0,0-10.228,9.708l-.024-6.5a10.1,10.1,0,0,0-10.3-9.783A9.927,9.927,0,0,0,61.74,42.457L61.62,9.971A10.1,10.1,0,0,0,51.32.188,9.927,9.927,0,0,0,41.092,9.9l.3,81.215-23.8-11.366A17.94,17.94,0,0,0,9.937,78,9.331,9.331,0,0,0,.323,87.127v.039a9,9,0,0,0,2.85,6.507l44.4,42.172a51.279,51.279,0,0,0,35.092,13.889h0c22.674.083,40.991-17.3,40.911-38.833l-.2-55.226A10.1,10.1,0,0,0,113.072,45.893Z" transform="translate(18.945 9.874)" fill="#ffcc80"/>
        <path id="Tracé_55" data-name="Tracé 55" d="M85.784,156.091a54.169,54.169,0,0,1-37.368-14.851L4.186,99.109a12.008,12.008,0,0,1-.06-17.569,13.291,13.291,0,0,1,9.183-3.6,21.5,21.5,0,0,1,9.148,2.084l18.771,8.993-.281-75.884C40.922,5.962,47,.172,54.533.2S68.188,6.061,68.214,13.231l.079,21.219a14.074,14.074,0,0,1,18.642,4.813A12.793,12.793,0,0,1,88,41.467,14.107,14.107,0,0,1,106.93,45.1a12.868,12.868,0,0,1,1.547,2.932A14.106,14.106,0,0,1,127.4,51.674a12.623,12.623,0,0,1,2.328,7.217l.2,55.172C129.991,137.352,110.242,156.151,85.784,156.091ZM13.333,84.428a6.031,6.031,0,0,0-6.19,5.927,5.838,5.838,0,0,0,1.838,4.183l44.23,42.131A47.2,47.2,0,0,0,85.76,149.6c20.694.051,37.4-15.857,37.358-35.562l-.2-55.172a6.719,6.719,0,0,0-6.84-6.516,6.6,6.6,0,0,0-6.792,6.466l.06,16.227a3.3,3.3,0,0,1-3.4,3.233,3.36,3.36,0,0,1-3.42-3.258L102.44,52.3a6.719,6.719,0,0,0-6.84-6.516,6.6,6.6,0,0,0-6.792,6.466l.084,22.718A3.3,3.3,0,0,1,85.5,78.2a3.36,3.36,0,0,1-3.42-3.258l-.108-29.209a6.719,6.719,0,0,0-6.84-6.516,6.6,6.6,0,0,0-6.792,6.466l.108,29.209a3.3,3.3,0,0,1-3.4,3.233,3.36,3.36,0,0,1-3.42-3.258L61.4,13.206a6.719,6.719,0,0,0-6.84-6.516,6.6,6.6,0,0,0-6.792,6.466l.3,81.135a3.3,3.3,0,0,1-3.4,3.233,3.565,3.565,0,0,1-1.528-.349L19.405,85.82A14.325,14.325,0,0,0,13.333,84.428Z" transform="translate(15.76 6.69)" fill="#1d1d1d"/>
      </g>
    </g>
  </g>
</svg>
