<svg id="php" xmlns="http://www.w3.org/2000/svg" width="90.173" height="90.173" viewBox="0 0 90.173 90.173">
  <path id="Tracé_10" data-name="Tracé 10" d="M90.173,45.086a45.091,45.091,0,0,1-84.164,22.5,45.1,45.1,0,1,1,84.164-22.5Z" fill="#f2ebda"/>
  <g id="Groupe_9" data-name="Groupe 9" transform="translate(1.59 21.745)">
    <path id="Tracé_11" data-name="Tracé 11" d="M30.364,178.239h-16.6l-4.731,25.6a44.735,44.735,0,0,0,4.418,10.594h1.54l1.833-9.915h9.124c11.11,0,14.1-9.974,14.812-14.873A10.164,10.164,0,0,0,30.364,178.239Zm2.409,12.234c-.407,2.777-2.459,8.432-8.756,8.432H17.858L20.611,184h6.27C32.992,184,33.18,187.7,32.773,190.473Z" transform="translate(-9.028 -168.593)" fill="#1d1d1d"/>
    <path id="Tracé_12" data-name="Tracé 12" d="M369.448,179.4a10.863,10.863,0,0,0-5.037-1.163h-16.6l-6.689,36.2h7.917l1.833-9.915h9.124a13.151,13.151,0,0,0,10.515-4.6,45.43,45.43,0,0,0-1.058-20.523Zm-2.628,11.071c-.407,2.777-2.459,8.432-8.758,8.432H351.9l2.753-14.9h6.27C367.039,184,367.227,187.7,366.82,190.472Z" transform="translate(-282.63 -168.592)" fill="#1d1d1d"/>
    <path id="Tracé_13" data-name="Tracé 13" d="M204.524,133.234h-9.616l1.8-9.766H188.83l-6.69,36.2h7.884l3.847-20.815h5.039c3.345,0,5.615.717,5.137,3.823s-3.225,16.843-3.225,16.843h8s3.106-15.29,3.584-19.591S208.944,133.234,204.524,133.234Z" transform="translate(-151.652 -123.468)" fill="#1d1d1d"/>
  </g>
</svg>
