<svg id="phpstorm-1" xmlns="http://www.w3.org/2000/svg" width="97" height="97" viewBox="0 0 97 97">
  <path id="Tracé_17" data-name="Tracé 17" d="M54.874,21.063,50.3,7.206,16.49,0,0,18.707,51.549,45.036Z" fill="#f2ebda"/>
  <path id="Tracé_18" data-name="Tracé 18" d="M38.8,52.161l-.97-28.823L0,13.5,9.284,69.067,38.8,68.79Z" transform="translate(0 5.207)" fill="#f2ebda"/>
  <path id="Tracé_19" data-name="Tracé 19" d="M22.1,55.194,23.9,32.33,51.339,4.2,75.866,8.634,88.476,40.09,75.311,53.116,53.833,49.651l-13.3,14Z" transform="translate(8.524 1.62)" fill="#f2ebda"/>
  <path id="Tracé_20" data-name="Tracé 20" d="M54.154,4.2,14.8,39.12l7.621,44.9,32.7,11.363L91.291,73.763Z" transform="translate(5.709 1.62)" fill="#f2ebda"/>
  <g id="Groupe_14" data-name="Groupe 14" transform="translate(18.569 18.569)">
    <path id="Tracé_21" data-name="Tracé 21" d="M13.4,13.4H73.263V73.263H13.4Z" transform="translate(-13.4 -13.4)" fill="#f2ebda" stroke="#ee8100" stroke-width="1"/>
    <path id="Tracé_22" data-name="Tracé 22" d="M17.577,59.994H40.026v3.741H17.577ZM17.3,19.116H27.416c5.959,0,9.561,3.464,9.561,8.591v.139c0,5.82-4.434,8.73-10.116,8.73H22.7v7.483H17.3Zm9.839,12.471c2.771,0,4.3-1.663,4.3-3.741v-.139c0-2.494-1.663-3.741-4.434-3.741H22.843v7.621Zm11.224,8.869,3.187-3.88a11.639,11.639,0,0,0,7.483,3.049c2.217,0,3.6-.831,3.6-2.356V37.13c0-1.386-.831-2.079-4.989-3.187-4.989-1.247-8.314-2.633-8.314-7.621v-.139c0-4.573,3.6-7.483,8.73-7.483a14.235,14.235,0,0,1,9.284,3.187l-2.91,4.157a12,12,0,0,0-6.513-2.494c-2.079,0-3.187.97-3.187,2.217v.139c0,1.663,1.109,2.217,5.4,3.326,4.989,1.386,7.9,3.187,7.9,7.483v.139c0,4.989-3.741,7.76-9.146,7.76a17.076,17.076,0,0,1-10.531-4.157" transform="translate(-11.896 -11.356)" fill="#ee8100" stroke="#ee8100" stroke-width="1"/>
  </g>
</svg>
